<svg width="398" height="47" viewBox="0 0 398 47" fill="none" xmlns="http://www.w3.org/2000/svg">
<path d="M20.984 38V37.04C22.008 36.976 22.776 36.848 23.288 36.656C23.8 36.464 24.136 36.08 24.296 35.504C24.488 34.928 24.584 34.064 24.584 32.912V9.10402C24.584 7.92002 24.488 7.05602 24.296 6.51202C24.136 5.93602 23.784 5.55202 23.24 5.36002C22.728 5.13602 21.976 5.00802 20.984 4.97602V4.01602C21.848 4.04802 22.968 4.08002 24.344 4.11202C25.752 4.14402 27.144 4.16002 28.52 4.16002C29.992 4.16002 31.368 4.14402 32.648 4.11202C33.96 4.08002 35.016 4.04802 35.816 4.01602V4.97602C34.792 5.00802 34.008 5.13602 33.464 5.36002C32.952 5.55202 32.616 5.93602 32.456 6.51202C32.296 7.05602 32.216 7.92002 32.216 9.10402V32.912C32.216 34.064 32.296 34.928 32.456 35.504C32.648 36.08 33 36.464 33.512 36.656C34.024 36.848 34.792 36.976 35.816 37.04V38C35.016 37.936 33.96 37.904 32.648 37.904C31.368 37.872 29.992 37.856 28.52 37.856C27.144 37.856 25.752 37.872 24.344 37.904C22.968 37.904 21.848 37.936 20.984 38ZM0.632019 38V37.04C1.65602 36.976 2.42402 36.848 2.93602 36.656C3.44802 36.464 3.78402 36.08 3.94402 35.504C4.13602 34.928 4.23202 34.064 4.23202 32.912V9.10402C4.23202 7.92002 4.13602 7.05602 3.94402 6.51202C3.78402 5.93602 3.43202 5.55202 2.88802 5.36002C2.37602 5.13602 1.62402 5.00802 0.632019 4.97602V4.01602C1.46402 4.04802 2.53602 4.08002 3.84802 4.11202C5.19202 4.14402 6.64802 4.16002 8.21602 4.16002C9.56002 4.16002 10.888 4.14402 12.2 4.11202C13.512 4.08002 14.6 4.04802 15.464 4.01602V4.97602C14.44 5.00802 13.656 5.13602 13.112 5.36002C12.6 5.55202 12.264 5.93602 12.104 6.51202C11.944 7.05602 11.864 7.92002 11.864 9.10402V32.912C11.864 34.064 11.944 34.928 12.104 35.504C12.296 36.08 12.648 36.464 13.16 36.656C13.672 36.848 14.44 36.976 15.464 37.04V38C14.6 37.936 13.512 37.904 12.2 37.904C10.888 37.872 9.56002 37.856 8.21602 37.856C6.64802 37.856 5.19202 37.872 3.84802 37.904C2.53602 37.904 1.46402 37.936 0.632019 38ZM8.74402 21.392V20.432H27.704V21.392H8.74402Z" fill="#141414"/>
<path d="M50.036 12.512C52.852 12.512 55.06 13.344 56.66 15.008C58.26 16.672 59.06 19.392 59.06 23.168H43.268L43.172 22.256H53.012C53.044 20.688 52.948 19.248 52.724 17.936C52.5 16.592 52.148 15.52 51.668 14.72C51.188 13.92 50.548 13.52 49.748 13.52C48.628 13.52 47.668 14.224 46.868 15.632C46.1 17.04 45.636 19.376 45.476 22.64L45.62 22.928C45.588 23.312 45.556 23.712 45.524 24.128C45.524 24.544 45.524 24.976 45.524 25.424C45.524 27.632 45.828 29.424 46.436 30.8C47.076 32.176 47.876 33.184 48.836 33.824C49.796 34.432 50.772 34.736 51.764 34.736C52.436 34.736 53.124 34.64 53.828 34.448C54.564 34.224 55.3 33.84 56.036 33.296C56.772 32.72 57.46 31.92 58.1 30.896L58.964 31.184C58.58 32.4 57.972 33.584 57.14 34.736C56.308 35.888 55.252 36.832 53.972 37.568C52.692 38.304 51.156 38.672 49.364 38.672C47.188 38.672 45.268 38.208 43.604 37.28C41.94 36.352 40.628 34.944 39.668 33.056C38.74 31.168 38.276 28.768 38.276 25.856C38.276 22.88 38.772 20.4 39.764 18.416C40.788 16.432 42.18 14.96 43.94 14C45.732 13.008 47.764 12.512 50.036 12.512Z" fill="#141414"/>
<path d="M79.4143 12.512C80.7583 12.512 81.8463 12.688 82.6783 13.04C83.5423 13.36 84.2143 13.808 84.6943 14.384C85.2063 14.992 85.5743 15.776 85.7983 16.736C86.0543 17.696 86.1823 18.992 86.1823 20.624V33.536C86.1823 34.88 86.4063 35.792 86.8543 36.272C87.3343 36.752 88.1343 36.992 89.2543 36.992V38C88.6463 37.968 87.7343 37.936 86.5183 37.904C85.3023 37.84 84.1023 37.808 82.9183 37.808C81.7023 37.808 80.5023 37.84 79.3183 37.904C78.1663 37.936 77.2863 37.968 76.6783 38V36.992C77.6383 36.992 78.3103 36.752 78.6943 36.272C79.0783 35.792 79.2703 34.88 79.2703 33.536V18.608C79.2703 17.808 79.1903 17.12 79.0303 16.544C78.8703 15.936 78.5823 15.472 78.1663 15.152C77.7503 14.8 77.1263 14.624 76.2943 14.624C75.4303 14.624 74.6303 14.864 73.8943 15.344C73.1903 15.824 72.6143 16.496 72.1663 17.36C71.7503 18.192 71.5423 19.136 71.5423 20.192V33.536C71.5423 34.88 71.7343 35.792 72.1183 36.272C72.5343 36.752 73.2063 36.992 74.1343 36.992V38C73.5583 37.968 72.7103 37.936 71.5903 37.904C70.5023 37.84 69.3663 37.808 68.1823 37.808C66.9663 37.808 65.7183 37.84 64.4383 37.904C63.1583 37.936 62.1983 37.968 61.5583 38V36.992C62.6783 36.992 63.4623 36.752 63.9103 36.272C64.3903 35.792 64.6303 34.88 64.6303 33.536V18.416C64.6303 16.976 64.4063 15.92 63.9583 15.248C63.5423 14.544 62.7423 14.192 61.5583 14.192V13.184C62.5823 13.28 63.5743 13.328 64.5343 13.328C65.8783 13.328 67.1263 13.28 68.2783 13.184C69.4623 13.056 70.5503 12.88 71.5423 12.656V16.976C72.3423 15.344 73.4303 14.192 74.8063 13.52C76.1823 12.848 77.7183 12.512 79.4143 12.512Z" fill="#141414"/>
<path d="M107.555 12.512C108.579 12.512 109.411 12.736 110.051 13.184C110.691 13.6 111.155 14.144 111.443 14.816C111.763 15.488 111.923 16.192 111.923 16.928C111.923 18.112 111.571 19.088 110.867 19.856C110.195 20.592 109.299 20.96 108.179 20.96C107.059 20.96 106.179 20.688 105.539 20.144C104.931 19.568 104.627 18.816 104.627 17.888C104.627 16.992 104.819 16.256 105.203 15.68C105.619 15.072 106.131 14.56 106.739 14.144C106.291 14.016 105.843 14.032 105.395 14.192C104.787 14.288 104.211 14.544 103.667 14.96C103.123 15.344 102.659 15.84 102.275 16.448C101.891 17.024 101.587 17.664 101.363 18.368C101.139 19.04 101.027 19.696 101.027 20.336V33.056C101.027 34.592 101.395 35.632 102.131 36.176C102.899 36.72 104.035 36.992 105.539 36.992V38C104.803 37.968 103.731 37.936 102.323 37.904C100.915 37.84 99.4426 37.808 97.9066 37.808C96.6266 37.808 95.3306 37.84 94.0186 37.904C92.7066 37.936 91.7146 37.968 91.0426 38V36.992C92.1626 36.992 92.9466 36.752 93.3946 36.272C93.8746 35.792 94.1146 34.88 94.1146 33.536V18.416C94.1146 16.976 93.8906 15.92 93.4426 15.248C93.0266 14.544 92.2266 14.192 91.0426 14.192V13.184C92.0666 13.28 93.0586 13.328 94.0186 13.328C95.3626 13.328 96.6106 13.28 97.7626 13.184C98.9466 13.056 100.035 12.88 101.027 12.656V17.12C101.411 16.256 101.923 15.472 102.563 14.768C103.203 14.064 103.939 13.52 104.771 13.136C105.603 12.72 106.531 12.512 107.555 12.512Z" fill="#141414"/>
<path d="M119.689 0.800016C121.033 0.800016 122.089 1.13602 122.857 1.80802C123.657 2.44802 124.057 3.34402 124.057 4.49602C124.057 5.64802 123.657 6.56002 122.857 7.23202C122.089 7.87202 121.033 8.19202 119.689 8.19202C118.345 8.19202 117.273 7.87202 116.473 7.23202C115.705 6.56002 115.321 5.64802 115.321 4.49602C115.321 3.34402 115.705 2.44802 116.473 1.80802C117.273 1.13602 118.345 0.800016 119.689 0.800016ZM123.433 12.656V33.536C123.433 34.88 123.657 35.792 124.105 36.272C124.585 36.752 125.385 36.992 126.505 36.992V38C125.929 37.968 125.033 37.936 123.817 37.904C122.601 37.84 121.369 37.808 120.121 37.808C118.873 37.808 117.609 37.84 116.329 37.904C115.049 37.936 114.089 37.968 113.449 38V36.992C114.569 36.992 115.353 36.752 115.801 36.272C116.281 35.792 116.521 34.88 116.521 33.536V18.416C116.521 16.976 116.297 15.92 115.849 15.248C115.433 14.544 114.633 14.192 113.449 14.192V13.184C114.473 13.28 115.465 13.328 116.425 13.328C117.769 13.328 119.017 13.28 120.169 13.184C121.353 13.056 122.441 12.88 123.433 12.656Z" fill="#141414"/>
<path d="M139.726 12.512C141.23 12.512 142.526 12.72 143.614 13.136C144.702 13.52 145.646 14.256 146.446 15.344L145.726 15.584C145.246 14.848 144.638 14.32 143.902 14C143.166 13.68 142.382 13.52 141.55 13.52C139.886 13.52 138.622 14.512 137.758 16.496C136.894 18.48 136.462 21.504 136.462 25.568C136.462 28.288 136.654 30.464 137.038 32.096C137.422 33.696 137.95 34.848 138.622 35.552C139.326 36.256 140.142 36.608 141.07 36.608C142.126 36.608 143.086 36.144 143.95 35.216C144.846 34.288 145.326 33.024 145.39 31.424L145.63 33.104C145.15 34.928 144.35 36.32 143.23 37.28C142.11 38.208 140.718 38.672 139.054 38.672C137.23 38.672 135.566 38.208 134.062 37.28C132.59 36.352 131.406 34.928 130.51 33.008C129.646 31.056 129.214 28.544 129.214 25.472C129.214 22.56 129.662 20.16 130.558 18.272C131.454 16.352 132.686 14.912 134.254 13.952C135.854 12.992 137.678 12.512 139.726 12.512ZM151.774 12.416L152.494 12.8C152.366 13.216 152.27 13.664 152.206 14.144C152.174 14.592 152.158 15.056 152.158 15.536V42.416C152.158 43.696 152.366 44.56 152.782 45.008C153.23 45.456 153.982 45.68 155.038 45.68V46.688C154.462 46.656 153.614 46.608 152.494 46.544C151.374 46.512 150.206 46.496 148.99 46.496C147.39 46.496 145.854 46.512 144.382 46.544C142.91 46.608 141.758 46.656 140.926 46.688V45.68C142.302 45.68 143.358 45.424 144.094 44.912C144.862 44.432 145.246 43.44 145.246 41.936V14.432C146.078 14.496 146.91 14.448 147.742 14.288C148.574 14.128 149.342 13.888 150.046 13.568C150.782 13.216 151.358 12.832 151.774 12.416Z" fill="#141414"/>
<path d="M180.572 12.656V32.768C180.572 34.208 180.796 35.28 181.244 35.984C181.692 36.656 182.492 36.992 183.644 36.992V38C182.652 37.904 181.66 37.856 180.668 37.856C179.324 37.856 178.076 37.904 176.924 38C175.772 38.096 174.684 38.272 173.66 38.528V34.208C172.892 35.808 171.82 36.96 170.444 37.664C169.1 38.336 167.596 38.672 165.932 38.672C164.588 38.672 163.5 38.496 162.668 38.144C161.836 37.792 161.18 37.344 160.7 36.8C160.156 36.192 159.772 35.392 159.548 34.4C159.324 33.408 159.212 32.128 159.212 30.56V18.416C159.212 16.976 158.988 15.92 158.54 15.248C158.124 14.544 157.324 14.192 156.14 14.192V13.184C157.164 13.28 158.156 13.328 159.116 13.328C160.46 13.328 161.708 13.28 162.86 13.184C164.044 13.056 165.132 12.88 166.124 12.656V32.528C166.124 33.328 166.188 34.032 166.316 34.64C166.476 35.248 166.764 35.728 167.18 36.08C167.596 36.4 168.204 36.56 169.004 36.56C169.868 36.56 170.636 36.32 171.308 35.84C172.012 35.36 172.572 34.704 172.988 33.872C173.436 33.008 173.66 32.048 173.66 30.992V18.416C173.66 16.976 173.436 15.92 172.988 15.248C172.572 14.544 171.772 14.192 170.588 14.192V13.184C171.612 13.28 172.604 13.328 173.564 13.328C174.908 13.328 176.156 13.28 177.308 13.184C178.492 13.056 179.58 12.88 180.572 12.656Z" fill="#141414"/>
<path d="M198.161 12.512C200.977 12.512 203.185 13.344 204.785 15.008C206.385 16.672 207.185 19.392 207.185 23.168H191.393L191.297 22.256H201.137C201.169 20.688 201.073 19.248 200.849 17.936C200.625 16.592 200.273 15.52 199.793 14.72C199.313 13.92 198.673 13.52 197.873 13.52C196.753 13.52 195.793 14.224 194.993 15.632C194.225 17.04 193.761 19.376 193.601 22.64L193.745 22.928C193.713 23.312 193.681 23.712 193.649 24.128C193.649 24.544 193.649 24.976 193.649 25.424C193.649 27.632 193.953 29.424 194.561 30.8C195.201 32.176 196.001 33.184 196.961 33.824C197.921 34.432 198.897 34.736 199.889 34.736C200.561 34.736 201.249 34.64 201.953 34.448C202.689 34.224 203.425 33.84 204.161 33.296C204.897 32.72 205.585 31.92 206.225 30.896L207.089 31.184C206.705 32.4 206.097 33.584 205.265 34.736C204.433 35.888 203.377 36.832 202.097 37.568C200.817 38.304 199.281 38.672 197.489 38.672C195.313 38.672 193.393 38.208 191.729 37.28C190.065 36.352 188.753 34.944 187.793 33.056C186.865 31.168 186.401 28.768 186.401 25.856C186.401 22.88 186.897 20.4 187.889 18.416C188.913 16.432 190.305 14.96 192.065 14C193.857 13.008 195.889 12.512 198.161 12.512Z" fill="#141414"/>
<path d="M239.072 3.34402C242.464 3.34402 245.424 4.03202 247.952 5.40802C250.512 6.78402 252.496 8.76802 253.904 11.36C255.312 13.92 256.016 17.04 256.016 20.72C256.016 24.304 255.296 27.44 253.856 30.128C252.416 32.816 250.4 34.912 247.808 36.416C245.248 37.92 242.32 38.672 239.024 38.672C235.632 38.672 232.656 37.984 230.096 36.608C227.568 35.232 225.6 33.248 224.192 30.656C222.784 28.064 222.08 24.944 222.08 21.296C222.08 17.712 222.8 14.576 224.24 11.888C225.712 9.20002 227.712 7.10402 230.24 5.60002C232.8 4.09602 235.744 3.34402 239.072 3.34402ZM238.88 4.20802C237.088 4.20802 235.52 4.92802 234.176 6.36802C232.864 7.80802 231.84 9.79202 231.104 12.32C230.4 14.848 230.048 17.776 230.048 21.104C230.048 24.496 230.448 27.456 231.248 29.984C232.08 32.48 233.184 34.416 234.56 35.792C235.968 37.136 237.52 37.808 239.216 37.808C241.008 37.808 242.56 37.088 243.872 35.648C245.216 34.208 246.24 32.224 246.944 29.696C247.68 27.136 248.048 24.208 248.048 20.912C248.048 17.488 247.632 14.528 246.8 12.032C246 9.53602 244.896 7.61602 243.488 6.27202C242.112 4.89602 240.576 4.20802 238.88 4.20802Z" fill="#141414"/>
<path d="M268.507 0.416016V33.536C268.507 34.88 268.731 35.792 269.179 36.272C269.659 36.752 270.459 36.992 271.579 36.992V38C270.971 37.968 270.059 37.936 268.843 37.904C267.627 37.84 266.395 37.808 265.147 37.808C263.899 37.808 262.635 37.84 261.355 37.904C260.107 37.936 259.163 37.968 258.523 38V36.992C259.643 36.992 260.427 36.752 260.875 36.272C261.355 35.792 261.595 34.88 261.595 33.536V6.17602C261.595 4.73602 261.371 3.68002 260.923 3.00802C260.507 2.30402 259.707 1.95202 258.523 1.95202V0.944017C259.547 1.04002 260.539 1.08802 261.499 1.08802C262.811 1.08802 264.059 1.04002 265.243 0.944017C266.427 0.816017 267.515 0.640017 268.507 0.416016Z" fill="#141414"/>
<path d="M279.861 0.800016C281.205 0.800016 282.261 1.13602 283.029 1.80802C283.829 2.44802 284.229 3.34402 284.229 4.49602C284.229 5.64802 283.829 6.56002 283.029 7.23202C282.261 7.87202 281.205 8.19202 279.861 8.19202C278.517 8.19202 277.445 7.87202 276.645 7.23202C275.877 6.56002 275.493 5.64802 275.493 4.49602C275.493 3.34402 275.877 2.44802 276.645 1.80802C277.445 1.13602 278.517 0.800016 279.861 0.800016ZM283.605 12.656V33.536C283.605 34.88 283.829 35.792 284.277 36.272C284.757 36.752 285.557 36.992 286.677 36.992V38C286.101 37.968 285.205 37.936 283.989 37.904C282.773 37.84 281.541 37.808 280.293 37.808C279.045 37.808 277.781 37.84 276.501 37.904C275.221 37.936 274.261 37.968 273.621 38V36.992C274.741 36.992 275.525 36.752 275.973 36.272C276.453 35.792 276.693 34.88 276.693 33.536V18.416C276.693 16.976 276.469 15.92 276.021 15.248C275.605 14.544 274.805 14.192 273.621 14.192V13.184C274.645 13.28 275.637 13.328 276.597 13.328C277.941 13.328 279.189 13.28 280.341 13.184C281.525 13.056 282.613 12.88 283.605 12.656Z" fill="#141414"/>
<path d="M311.758 13.184V14.144C311.15 14.304 310.574 14.688 310.03 15.296C309.486 15.872 308.958 16.864 308.446 18.272L301.438 38.096C300.926 38.064 300.398 38.048 299.854 38.048C299.342 38.048 298.83 38.064 298.318 38.096L289.774 16.88C289.262 15.632 288.75 14.88 288.238 14.624C287.758 14.336 287.342 14.192 286.99 14.192V13.184C288.014 13.248 289.07 13.312 290.158 13.376C291.278 13.408 292.494 13.424 293.806 13.424C294.798 13.424 295.838 13.408 296.926 13.376C298.046 13.312 299.086 13.248 300.046 13.184V14.192C299.374 14.192 298.766 14.224 298.222 14.288C297.71 14.352 297.358 14.56 297.166 14.912C296.974 15.264 297.006 15.888 297.262 16.784L302.878 31.664L302.398 32.336L306.19 21.824C306.798 20.096 307.054 18.688 306.958 17.6C306.862 16.48 306.51 15.648 305.902 15.104C305.294 14.528 304.478 14.208 303.454 14.144V13.184C303.934 13.216 304.446 13.248 304.99 13.28C305.566 13.28 306.11 13.296 306.622 13.328C307.166 13.328 307.646 13.328 308.062 13.328C308.702 13.328 309.374 13.312 310.078 13.28C310.782 13.248 311.342 13.216 311.758 13.184Z" fill="#141414"/>
<path d="M324.63 12.512C327.446 12.512 329.654 13.344 331.254 15.008C332.854 16.672 333.654 19.392 333.654 23.168H317.862L317.766 22.256H327.606C327.638 20.688 327.542 19.248 327.318 17.936C327.094 16.592 326.742 15.52 326.262 14.72C325.782 13.92 325.142 13.52 324.342 13.52C323.222 13.52 322.262 14.224 321.462 15.632C320.694 17.04 320.23 19.376 320.07 22.64L320.214 22.928C320.182 23.312 320.15 23.712 320.118 24.128C320.118 24.544 320.118 24.976 320.118 25.424C320.118 27.632 320.422 29.424 321.03 30.8C321.67 32.176 322.47 33.184 323.43 33.824C324.39 34.432 325.366 34.736 326.358 34.736C327.03 34.736 327.718 34.64 328.422 34.448C329.158 34.224 329.894 33.84 330.63 33.296C331.366 32.72 332.054 31.92 332.694 30.896L333.558 31.184C333.174 32.4 332.566 33.584 331.734 34.736C330.902 35.888 329.846 36.832 328.566 37.568C327.286 38.304 325.75 38.672 323.958 38.672C321.782 38.672 319.862 38.208 318.198 37.28C316.534 36.352 315.222 34.944 314.262 33.056C313.334 31.168 312.87 28.768 312.87 25.856C312.87 22.88 313.366 20.4 314.358 18.416C315.382 16.432 316.774 14.96 318.534 14C320.326 13.008 322.358 12.512 324.63 12.512Z" fill="#141414"/>
<path d="M342.673 0.800016C344.017 0.800016 345.073 1.13602 345.841 1.80802C346.641 2.44802 347.041 3.34402 347.041 4.49602C347.041 5.64802 346.641 6.56002 345.841 7.23202C345.073 7.87202 344.017 8.19202 342.673 8.19202C341.329 8.19202 340.257 7.87202 339.457 7.23202C338.689 6.56002 338.305 5.64802 338.305 4.49602C338.305 3.34402 338.689 2.44802 339.457 1.80802C340.257 1.13602 341.329 0.800016 342.673 0.800016ZM346.417 12.656V33.536C346.417 34.88 346.641 35.792 347.089 36.272C347.569 36.752 348.369 36.992 349.489 36.992V38C348.913 37.968 348.017 37.936 346.801 37.904C345.585 37.84 344.353 37.808 343.105 37.808C341.857 37.808 340.593 37.84 339.313 37.904C338.033 37.936 337.073 37.968 336.433 38V36.992C337.553 36.992 338.337 36.752 338.785 36.272C339.265 35.792 339.505 34.88 339.505 33.536V18.416C339.505 16.976 339.281 15.92 338.833 15.248C338.417 14.544 337.617 14.192 336.433 14.192V13.184C337.457 13.28 338.449 13.328 339.409 13.328C340.753 13.328 342.001 13.28 343.153 13.184C344.337 13.056 345.425 12.88 346.417 12.656Z" fill="#141414"/>
<path d="M368.086 12.512C369.11 12.512 369.942 12.736 370.582 13.184C371.222 13.6 371.686 14.144 371.974 14.816C372.294 15.488 372.454 16.192 372.454 16.928C372.454 18.112 372.102 19.088 371.398 19.856C370.726 20.592 369.83 20.96 368.71 20.96C367.59 20.96 366.71 20.688 366.07 20.144C365.462 19.568 365.158 18.816 365.158 17.888C365.158 16.992 365.35 16.256 365.734 15.68C366.15 15.072 366.662 14.56 367.27 14.144C366.822 14.016 366.374 14.032 365.926 14.192C365.318 14.288 364.742 14.544 364.198 14.96C363.654 15.344 363.19 15.84 362.806 16.448C362.422 17.024 362.118 17.664 361.894 18.368C361.67 19.04 361.558 19.696 361.558 20.336V33.056C361.558 34.592 361.926 35.632 362.662 36.176C363.43 36.72 364.566 36.992 366.07 36.992V38C365.334 37.968 364.262 37.936 362.854 37.904C361.446 37.84 359.974 37.808 358.438 37.808C357.158 37.808 355.862 37.84 354.55 37.904C353.238 37.936 352.246 37.968 351.574 38V36.992C352.694 36.992 353.478 36.752 353.926 36.272C354.406 35.792 354.646 34.88 354.646 33.536V18.416C354.646 16.976 354.422 15.92 353.974 15.248C353.558 14.544 352.758 14.192 351.574 14.192V13.184C352.598 13.28 353.59 13.328 354.55 13.328C355.894 13.328 357.142 13.28 358.294 13.184C359.478 13.056 360.566 12.88 361.558 12.656V17.12C361.942 16.256 362.454 15.472 363.094 14.768C363.734 14.064 364.47 13.52 365.302 13.136C366.134 12.72 367.062 12.512 368.086 12.512Z" fill="#141414"/>
<path d="M380.604 38.336C379.164 38.336 377.964 38.064 377.004 37.52C376.044 36.976 375.34 36.256 374.892 35.36C374.444 34.432 374.22 33.424 374.22 32.336C374.22 30.96 374.524 29.84 375.132 28.976C375.772 28.112 376.588 27.408 377.58 26.864C378.572 26.32 379.612 25.872 380.7 25.52C381.82 25.168 382.876 24.832 383.868 24.512C384.892 24.16 385.708 23.76 386.316 23.312C386.956 22.832 387.276 22.224 387.276 21.488V17.744C387.276 16.912 387.132 16.176 386.844 15.536C386.588 14.864 386.172 14.352 385.596 14C385.052 13.648 384.332 13.472 383.436 13.472C382.796 13.472 382.156 13.568 381.516 13.76C380.876 13.92 380.348 14.208 379.932 14.624C380.828 14.944 381.516 15.44 381.996 16.112C382.508 16.752 382.764 17.488 382.764 18.32C382.764 19.408 382.38 20.272 381.612 20.912C380.876 21.552 379.996 21.872 378.972 21.872C377.82 21.872 376.94 21.52 376.332 20.816C375.756 20.08 375.468 19.2 375.468 18.176C375.468 17.248 375.692 16.48 376.14 15.872C376.62 15.264 377.276 14.688 378.108 14.144C379.004 13.632 380.076 13.232 381.324 12.944C382.604 12.656 383.98 12.512 385.452 12.512C386.924 12.512 388.252 12.672 389.436 12.992C390.62 13.28 391.612 13.824 392.412 14.624C393.148 15.36 393.628 16.272 393.852 17.36C394.076 18.416 394.188 19.76 394.188 21.392V34.448C394.188 35.248 394.268 35.808 394.428 36.128C394.588 36.416 394.86 36.56 395.244 36.56C395.532 36.56 395.804 36.48 396.06 36.32C396.348 36.16 396.652 35.968 396.972 35.744L397.452 36.56C396.78 37.136 395.996 37.584 395.1 37.904C394.236 38.192 393.26 38.336 392.172 38.336C390.988 38.336 390.044 38.176 389.34 37.856C388.636 37.504 388.124 37.04 387.804 36.464C387.516 35.888 387.372 35.216 387.372 34.448C386.604 35.664 385.676 36.624 384.588 37.328C383.5 38 382.172 38.336 380.604 38.336ZM384.012 35.264C384.652 35.264 385.228 35.12 385.74 34.832C386.284 34.512 386.796 34 387.276 33.296V23.456C386.988 23.936 386.588 24.368 386.076 24.752C385.564 25.136 385.02 25.536 384.444 25.952C383.868 26.336 383.308 26.768 382.764 27.248C382.252 27.728 381.836 28.32 381.516 29.024C381.196 29.728 381.036 30.576 381.036 31.568C381.036 32.816 381.308 33.744 381.852 34.352C382.396 34.96 383.116 35.264 384.012 35.264Z" fill="#141414"/>
</svg>
