<svg width="50" height="50" viewBox="0 0 50 50" fill="none" xmlns="http://www.w3.org/2000/svg">
<path d="M7.29167 41.6666C6.45834 41.6666 5.72917 41.3541 5.10417 40.7291C4.47917 40.1041 4.16667 39.3749 4.16667 38.5416V11.4583C4.16667 10.6249 4.47917 9.89575 5.10417 9.27075C5.72917 8.64575 6.45834 8.33325 7.29167 8.33325H42.7083C43.5417 8.33325 44.2708 8.64575 44.8958 9.27075C45.5208 9.89575 45.8333 10.6249 45.8333 11.4583V38.5416C45.8333 39.3749 45.5208 40.1041 44.8958 40.7291C44.2708 41.3541 43.5417 41.6666 42.7083 41.6666H7.29167ZM42.7083 14.3228L25.8333 25.3645C25.6945 25.4339 25.5642 25.4947 25.4427 25.5468C25.3212 25.5989 25.1736 25.6249 25 25.6249C24.8264 25.6249 24.6788 25.5989 24.5573 25.5468C24.4358 25.4947 24.3056 25.4339 24.1667 25.3645L7.29167 14.3228V38.5416H42.7083V14.3228ZM25 22.8124L42.5 11.4583H7.55209L25 22.8124ZM7.29167 14.3228V14.6874V12.6301V12.6562V11.4583V12.6562V12.6041V14.6874V14.3228V38.5416V14.3228Z" fill="#800ADD"/>
</svg>
