<svg width="50" height="50" viewBox="0 0 50 50" fill="none" xmlns="http://www.w3.org/2000/svg">
<path d="M41.4062 43.75C37.1701 43.75 32.9601 42.7083 28.776 40.625C24.592 38.5417 20.8333 35.8333 17.5 32.5C14.1667 29.1667 11.4583 25.408 9.375 21.224C7.29167 17.0399 6.25 12.8299 6.25 8.59375C6.25 7.93403 6.47569 7.37847 6.92708 6.92708C7.37847 6.47569 7.93403 6.25 8.59375 6.25H15.8854C16.3715 6.25 16.7969 6.41493 17.1615 6.74479C17.526 7.07465 17.7604 7.51736 17.8646 8.07292L19.2708 14.6354C19.3403 15.1215 19.3316 15.5642 19.2448 15.9635C19.158 16.3628 18.9757 16.7014 18.6979 16.9792L13.4896 22.2396C15.434 25.4687 17.6128 28.2813 20.026 30.6771C22.4392 33.0729 25.1736 35.1042 28.2292 36.7708L33.1771 31.6667C33.5243 31.2847 33.9236 31.0156 34.375 30.8594C34.8264 30.7031 35.2778 30.6771 35.7292 30.7812L41.9271 32.1354C42.4479 32.2396 42.8819 32.5 43.2292 32.9167C43.5764 33.3333 43.75 33.8194 43.75 34.375V41.4062C43.75 42.066 43.5243 42.6215 43.0729 43.0729C42.6215 43.5243 42.066 43.75 41.4062 43.75ZM11.9271 19.375L16.1458 15.1042L14.9479 9.375H9.375C9.375 10.7292 9.58333 12.2135 10 13.8281C10.4167 15.4427 11.059 17.2917 11.9271 19.375ZM31.1458 38.2812C32.5694 38.941 34.1146 39.4792 35.7812 39.8958C37.4479 40.3125 39.0625 40.5556 40.625 40.625V35.0521L35.2604 33.9583L31.1458 38.2812Z" fill="#800ADD"/>
</svg>
