<svg width="20" height="30" viewBox="0 0 20 30" fill="none" xmlns="http://www.w3.org/2000/svg">
<path d="M20 10C20 15.5228 15.5228 20 10 20C4.47715 20 0 15.5228 0 10C0 4.47715 4.47715 0 10 0C15.5228 0 20 4.47715 20 10Z" fill="url(#paint0_linear_15_23)"/>
<path d="M10 30L1.33974 15H18.6603L10 30Z" fill="url(#paint1_linear_15_23)"/>
<path d="M16 10C16 13.3137 13.3137 16 10 16C6.68629 16 4 13.3137 4 10C4 6.68629 6.68629 4 10 4C13.3137 4 16 6.68629 16 10Z" fill="black"/>
<path d="M15 10C15 12.7614 12.7614 15 10 15C7.23858 15 5 12.7614 5 10C5 7.23858 7.23858 5 10 5C12.7614 5 15 7.23858 15 10Z" fill="url(#paint2_radial_15_23)"/>
<defs>
<linearGradient id="paint0_linear_15_23" x1="10" y1="25.5" x2="10" y2="30" gradientUnits="userSpaceOnUse">
<stop stop-color="#800ADD"/>
<stop offset="0.9998" stop-color="#9D4DDC" stop-opacity="0.677083"/>
<stop offset="0.9999" stop-color="#9F52DC" stop-opacity="0.651042"/>
<stop offset="1" stop-color="#D9D9D9" stop-opacity="0"/>
</linearGradient>
<linearGradient id="paint1_linear_15_23" x1="10" y1="0" x2="10" y2="39" gradientUnits="userSpaceOnUse">
<stop stop-color="#800ADD"/>
<stop offset="1" stop-color="#800ADD"/>
</linearGradient>
<radialGradient id="paint2_radial_15_23" cx="0" cy="0" r="1" gradientUnits="userSpaceOnUse" gradientTransform="translate(10 10) rotate(90) scale(7.5)">
<stop stop-color="#F5E6FF"/>
<stop offset="1" stop-color="#701CDA" stop-opacity="0"/>
</radialGradient>
</defs>
</svg>
